<svg xmlns="http://www.w3.org/2000/svg" width="31.24" height="37.257" viewBox="0 0 31.24 37.257">
  <g id="Group_2657" data-name="Group 2657" transform="translate(-128.148 -28.845)">
    <path id="Path_746" data-name="Path 746" d="M305.712,250.778c-2.161.978-5.272,1.835-6.727-.417-2.352-3.638-6.868-1.835-6.868-1.835s-3.569.544-5.593-.706a4.676,4.676,0,0,0-3.772-.032,11.685,11.685,0,0,0-1.068,3.878c-.455,5.058-.079,10.857,2.893,14.94a7.038,7.038,0,0,0,5.705,2.832h8.35a7.14,7.14,0,0,0,7.077-5.327,10.558,10.558,0,0,0,.2-1.249Zm-11.688,13.837c-3.213,0-5.819-3.191-5.819-7.127s2.606-7.127,5.819-7.127,5.82,3.191,5.82,7.127S297.237,264.616,294.024,264.616Z" transform="translate(-153.374 -203.336)" fill="#f7a62c"/>
    <g id="Group_183" data-name="Group 183" transform="translate(128.844 29.19)">
      <g id="Group_182" data-name="Group 182" transform="translate(0 0.218)">
        <path id="Path_748" data-name="Path 748" d="M306.907,177.041c-1.534-.6-3.51-.164-5.6.2a3.788,3.788,0,0,1-3.049-.457l-.4.65c-.933.363-3.444-.232-3.378-2.436a4.113,4.113,0,0,1,2.173-3.265c1.258-5.518,5.859-5.158,5.859-5.158l-.166-.259a9.34,9.34,0,0,1,2.658-1.213,3.974,3.974,0,0,1,1.729,1.078,6,6,0,0,1,3.649,2.418s2.6-1.818,5,1.172c0,0,4.55-1.015,5.693,3.192a4.008,4.008,0,0,1-.476,5.53,7.02,7.02,0,0,1-3.115,1.525c-2.025.466-2.141,3.175-1.96,4.415s-1.293,1.166-2.033.5a1.977,1.977,0,0,1-.023-.6c.082-.684.933-2.333.157-3.312a4.481,4.481,0,0,0-2.283-1.252l.33-.859C309.16,179.266,308.442,177.645,306.907,177.041Z" transform="translate(-292.869 -165.105)" fill="#fff"/>
        <path id="Path_749" data-name="Path 749" d="M300.738,185.34c-1.877-.857-1.763-2.3-5.379-1.613s-4.457.257-5.261-.522a3.458,3.458,0,0,1-2.454.459v-.209a1.935,1.935,0,0,1-1.924-1.334c-.331-1.376-.655-2.975.667-3.727s2.319-1.191,2.319-1.191-.39-3.312,1.417-4.676,4.735-.855,4.735-.855l.048-.033.166.259s-4.6-.36-5.859,5.158a4.113,4.113,0,0,0-2.173,3.265c-.065,2.2,2.446,2.8,3.378,2.436l.4-.65a3.788,3.788,0,0,0,3.049.457c2.09-.366,4.065-.806,5.6-.2s2.253,2.225,4.767,1.872l-.33.859c-.136-.034-.221-.05-.221-.05A2.516,2.516,0,0,1,300.738,185.34Z" transform="translate(-285.427 -170.425)" fill="#f7f3e9"/>
      </g>
      <path id="Path_750" data-name="Path 750" d="M364.093,183.429c-.181-1.241-.065-3.95,1.96-4.415a7.02,7.02,0,0,0,3.115-1.525,4.008,4.008,0,0,0,.476-5.53c-1.143-4.207-5.693-3.192-5.693-3.192-2.4-2.99-5-1.172-5-1.172a6,6,0,0,0-3.649-2.418,3.974,3.974,0,0,0-1.729-1.078,5.22,5.22,0,0,1,2.894-.023A4.221,4.221,0,0,1,359.528,167s2.549-2.072,5.068,1.272c0,0,5.233-2.037,5.761,4.008,0,0,3.433,3.173-.974,5.633l0,.229-.222-.111a4.3,4.3,0,0,1-1.854,1.547,3.326,3.326,0,0,0-2.071,2.783c-.112,1.147.391,2.914-1.3,2.937a1.664,1.664,0,0,1-1.869-1.371C362.8,184.594,364.272,184.67,364.093,183.429Z" transform="translate(-341.435 -163.88)" fill="#f7a62c"/>
    </g>
    <path id="Path_751" data-name="Path 751" d="M312.982,170.588a.223.223,0,0,0,.009-.034,4.27,4.27,0,0,0-5.924-4.187,3.555,3.555,0,0,0-5.172-1.324,5.36,5.36,0,0,0-8.592-1.593.272.272,0,0,0-.075.115,5.068,5.068,0,0,0-6.7,5.552c-2.267.574-4,2.976-2.711,5.3a3.16,3.16,0,0,0,4.572,1.1c2.6,2.627,6.913-1.386,9.338,1.376a.26.26,0,0,0,.137.083,3.107,3.107,0,0,0,4.245.4.285.285,0,0,0,.213.109,2.333,2.333,0,0,1,2.213,1.83,4.392,4.392,0,0,1-.426,2.157,1.92,1.92,0,0,0,.756,2.218,1.954,1.954,0,0,0,2.874-2.276.286.286,0,0,0-.034-.069c-.122-1.744,1.147-2.5,2.5-3.362a3.035,3.035,0,0,0,1.314-1.479.25.25,0,0,0,.329.152A3.508,3.508,0,0,0,312.982,170.588Zm-1.291,5.5a.289.289,0,0,0-.078.044,2.06,2.06,0,0,0,.027-.378.294.294,0,0,0-.588,0c.033,1.69-2.255,2.046-3.161,3.158a3.61,3.61,0,0,0-.721,2.876.255.255,0,0,0,.052.125,1.466,1.466,0,0,1-.7,1.368,1.36,1.36,0,0,1-1.94-1.138c-.029-.906.656-1.672.574-2.622a2.89,2.89,0,0,0-2.594-2.591,3.494,3.494,0,0,0,.349-.471.294.294,0,0,0-.507-.3,2.533,2.533,0,0,1-4.244.266.3.3,0,0,0-.162-.1c-2.545-2.585-6.726,1.171-9.168-1.2a3.1,3.1,0,0,0,.674-1.114c.126-.358-.442-.511-.566-.156a2.466,2.466,0,0,1-.623.98.333.333,0,0,0-.118.107,2.6,2.6,0,0,1-4.067-1.276c-.7-2.159,1.171-3.993,3.228-4.087.377-.017.378-.605,0-.588-.088,0-.175.018-.263.028a.2.2,0,0,0,0-.024,4.484,4.484,0,0,1,6.429-4.678c.339.165.636-.342.3-.507l-.024-.01a4.771,4.771,0,0,1,7.63,1.623,3.807,3.807,0,0,0-.536.608c-.216.312.294.6.507.3a2.988,2.988,0,0,1,5.143.31,4.4,4.4,0,0,0-.434.285c-.3.227,0,.738.3.508a3.681,3.681,0,0,1,5.99,2.783c-.061-.032-.115-.07-.18-.1-.342-.156-.64.35-.3.507A2.921,2.921,0,0,1,311.692,176.091Z" transform="translate(-154.9 -133.097)" fill="#fff"/>
    <g id="Group_184" data-name="Group 184" transform="translate(157.12 38.562)">
      <path id="Path_752" data-name="Path 752" d="M444.9,217.434a1.237,1.237,0,0,0-.665-.741c-.113-.051-.053-.237.062-.186a1.425,1.425,0,0,1,.78.841c.04.117-.135.205-.177.086Z" transform="translate(-444.178 -216.498)" fill="#1a1818"/>
    </g>
    <g id="Group_185" data-name="Group 185" transform="translate(141.101 30.361)">
      <path id="Path_753" data-name="Path 753" d="M357.99,171.647a4.108,4.108,0,0,0-3.629-.888.1.1,0,0,1-.048-.191,4.313,4.313,0,0,1,3.817.942c.1.082-.045.219-.14.137Z" transform="translate(-354.241 -170.453)" fill="#1a1818"/>
    </g>
    <g id="Group_186" data-name="Group 186" transform="translate(129.713 39.104)">
      <path id="Path_754" data-name="Path 754" d="M291.858,222.065a2.339,2.339,0,0,1-1.546-2.433c.011-.125.207-.121.2.006a2.14,2.14,0,0,0,1.4,2.239c.118.044.063.232-.055.188Z" transform="translate(-290.304 -219.541)" fill="#1a1818"/>
    </g>
    <g id="Group_187" data-name="Group 187" transform="translate(130.333 37.805)">
      <path id="Path_755" data-name="Path 755" d="M294,214.437a1.988,1.988,0,0,1,.224-2.156c.078-.1.221.035.143.133a1.784,1.784,0,0,0-.2,1.921c.055.112-.111.216-.167.1Z" transform="translate(-293.787 -212.246)" fill="#1a1818"/>
    </g>
    <g id="Group_188" data-name="Group 188" transform="translate(139.563 41.455)">
      <path id="Path_756" data-name="Path 756" d="M351.328,234.513c-.949.243-1.688-.352-2.428-.857a3.9,3.9,0,0,0-3.171-.6c-.122.029-.182-.157-.058-.187a4.055,4.055,0,0,1,2.472.154c1.029.409,1.913,1.617,3.125,1.307.121-.031.182.156.06.187Z" transform="translate(-345.603 -232.742)" fill="#1a1818"/>
    </g>
    <g id="Group_189" data-name="Group 189" transform="translate(134.018 41.359)">
      <path id="Path_757" data-name="Path 757" d="M316.155,232.943a2.55,2.55,0,0,1-1.642-.552c-.1-.078,0-.245.1-.167a2.382,2.382,0,0,0,1.547.524c.126,0,.121.194-.006.2Z" transform="translate(-314.473 -232.203)" fill="#1a1818"/>
    </g>
    <g id="Group_190" data-name="Group 190" transform="translate(153.208 41.041)">
      <path id="Path_758" data-name="Path 758" d="M425.216,230.558a1.868,1.868,0,0,1-2.966.662c-.1-.082.033-.229.13-.147a1.675,1.675,0,0,0,2.661-.6c.052-.116.227-.029.176.086Z" transform="translate(-422.216 -230.418)" fill="#1a1818"/>
    </g>
    <g id="Group_191" data-name="Group 191" transform="translate(151.824 41.881)">
      <path id="Path_759" data-name="Path 759" d="M416.232,235.307a1.23,1.23,0,0,1-1.752.1c-.1-.081.047-.215.142-.134a1.034,1.034,0,0,0,1.475-.113c.085-.094.22.049.135.142Z" transform="translate(-414.448 -235.134)" fill="#1a1818"/>
    </g>
    <g id="Group_192" data-name="Group 192" transform="translate(134.726 32.616)">
      <path id="Path_760" data-name="Path 760" d="M323.068,183.458a3.726,3.726,0,0,0-4.426,1.974c-.054.112-.239.047-.184-.068a3.925,3.925,0,0,1,4.677-2.091c.121.035.055.219-.066.184Z" transform="translate(-318.447 -183.113)" fill="#1a1818"/>
    </g>
    <g id="Group_193" data-name="Group 193" transform="translate(134.392 32.499)">
      <path id="Path_761" data-name="Path 761" d="M317.888,182.65a2.02,2.02,0,0,0-1.129.885c-.066.107-.237.011-.17-.1a2.225,2.225,0,0,1,1.248-.977c.12-.038.172.151.051.189Z" transform="translate(-316.573 -182.456)" fill="#1a1818"/>
    </g>
    <g id="Group_194" data-name="Group 194" transform="translate(138.621 32.544)">
      <path id="Path_762" data-name="Path 762" d="M343.126,183.171a1.793,1.793,0,0,0-2.614.872c-.048.117-.233.049-.185-.068a1.992,1.992,0,0,1,2.911-.963c.108.064-.005.224-.113.159Z" transform="translate(-340.32 -182.711)" fill="#1a1818"/>
    </g>
    <g id="Group_195" data-name="Group 195" transform="translate(133.481 36.753)">
      <path id="Path_763" data-name="Path 763" d="M313.837,206.656a1.577,1.577,0,0,0-2.177,1.285c-.016.124-.211.112-.2-.014a1.773,1.773,0,0,1,2.438-1.456c.117.045.053.23-.066.185Z" transform="translate(-311.464 -206.341)" fill="#1a1818"/>
    </g>
    <g id="Group_196" data-name="Group 196" transform="translate(132.639 36.832)">
      <path id="Path_764" data-name="Path 764" d="M308.4,207.131a1.129,1.129,0,0,0-1.5.339c-.073.1-.226-.02-.152-.123a1.322,1.322,0,0,1,1.727-.4c.11.059.034.24-.077.18Z" transform="translate(-306.733 -206.785)" fill="#1a1818"/>
    </g>
    <g id="Group_197" data-name="Group 197" transform="translate(151.424 36.14)">
      <path id="Path_765" data-name="Path 765" d="M415.561,204.3a2,2,0,0,0-3.206-.649c-.092.085-.218-.065-.125-.15a2.192,2.192,0,0,1,3.508.715.1.1,0,0,1-.177.084Z" transform="translate(-412.197 -202.903)" fill="#1a1818"/>
    </g>
  </g>
</svg>
