<svg xmlns="http://www.w3.org/2000/svg" width="209" height="62.311" viewBox="0 0 209 62.311">
  <g id="Group_209" data-name="Group 209" transform="translate(-123.484 -161.942)">
    <path id="Path_699" data-name="Path 699" d="M772.832,233.555q-1.932,0-3.265,2.713a14.3,14.3,0,0,0-1.332,6.3,13.484,13.484,0,0,0,.321,3.126,2.634,2.634,0,0,0,2.8,2.344,3.739,3.739,0,0,0,3.54-2.39,16.839,16.839,0,0,0,1.38-7.032q0-2.943-1.011-3.908A3.427,3.427,0,0,0,772.832,233.555Z" transform="translate(-529.912 -58.858)" fill="none"/>
    <path id="Path_700" data-name="Path 700" d="M948.59,243.88q-.756,0-.994,8.7,1.328-.467,2.643-.94Z" transform="translate(-677.326 -67.344)" fill="none"/>
    <path id="Path_701" data-name="Path 701" d="M1015.484,192.93c.01-.478.021-.964.032-1.464q.185-8.229.184-10.712a8.873,8.873,0,0,0-.046-1.424q-.229-.23-10.344-.23l.506,14.3c.031.678.048,1.336.068,2l.2-.076A44.811,44.811,0,0,1,1015.484,192.93Z" transform="translate(-724.76 -14.101)" fill="#fff"/>
    <g id="Group_175" data-name="Group 175" transform="translate(195.806 164.262)">
      <path id="Path_702" data-name="Path 702" d="M742.208,198.846a33.09,33.09,0,0,0,.322-4.688q0-8.136-4.689-11.952a13.573,13.573,0,0,0-8.872-2.85,12.978,12.978,0,0,0-4.322.6q-4.413,1.471-7.125,6.712a23.871,23.871,0,0,0-2.712,11.215,20.542,20.542,0,0,0,1.287,7.493,12.274,12.274,0,0,0,1.984,3.473,114.754,114.754,0,0,0,22.6-4.287A22.7,22.7,0,0,0,742.208,198.846ZM730.991,201.1a3.739,3.739,0,0,1-3.54,2.39,2.634,2.634,0,0,1-2.8-2.344,13.481,13.481,0,0,1-.321-3.126,14.3,14.3,0,0,1,1.332-6.3q1.334-2.712,3.265-2.713a3.427,3.427,0,0,1,2.436,1.15q1.011.966,1.011,3.908A16.84,16.84,0,0,1,730.991,201.1Z" transform="translate(-681.807 -178.574)" fill="#fff"/>
      <path id="Path_703" data-name="Path 703" d="M900.614,192.336l1.649,7.759c2.472-.888,4.911-1.783,7.3-2.667q-.846-3.813-1.918-8.126-1.792-7.264-2.068-7.723a10.846,10.846,0,0,0-3.08-.184l-11.355-.229a5.5,5.5,0,0,0-1.517.091q-.347.347-.4,23.246c3.5-1.089,6.977-2.263,10.4-3.468Q899.857,192.339,900.614,192.336Z" transform="translate(-825.156 -180.062)" fill="#fff"/>
      <path id="Path_704" data-name="Path 704" d="M1185.229,270.1a8.735,8.735,0,0,0-.046-1.2l-.138-1.287-6.022.046q-4.818.073-5.925.176a49.139,49.139,0,0,1,11.927,6.432A40.1,40.1,0,0,0,1185.229,270.1Z" transform="translate(-1058.468 -251.115)" fill="#fff"/>
      <path id="Path_705" data-name="Path 705" d="M1095.751,190.035a13.649,13.649,0,0,1,.724-2.333q1.333-2.989,3.908-2.988a3.172,3.172,0,0,1,2.115.735,2.685,2.685,0,0,1,.92,1.977q0,.551.505.551l2.436-.138q2.162-.138,2.713-.138.966,0,3.586-.184.046,0,.046-.321a24.617,24.617,0,0,0-.368-3.035,10.421,10.421,0,0,0-4.23-7.126,10.816,10.816,0,0,0-2.942-1.379,12.664,12.664,0,0,0-3.769-.69,20.661,20.661,0,0,0-4.552.552,14.579,14.579,0,0,0-3.31,1.195,13.024,13.024,0,0,0-5.884,6.252,19.821,19.821,0,0,0-1.675,6.207A40.084,40.084,0,0,1,1095.751,190.035Z" transform="translate(-986.862 -174.967)" fill="#fff"/>
      <path id="Path_706" data-name="Path 706" d="M558.441,202.856q0-6.711-9.608-8.41-.414-.047-1.241-.23-5.655-.874-6.3-1.1a1.716,1.716,0,0,1-1.334-1.609q0-2.483,2.713-2.758a6.21,6.21,0,0,1,.965-.046,3.793,3.793,0,0,1,3.724,2.666h9.976q0-6.62-4.735-9.24a18.2,18.2,0,0,0-9.01-2.253,15.024,15.024,0,0,0-10.16,3.4,10.178,10.178,0,0,0-3.908,7.953,8.74,8.74,0,0,0,.828,3.493,6.064,6.064,0,0,0,2.069,2.756,12.507,12.507,0,0,0,2.39,1.15,15.707,15.707,0,0,0,2.85.735,17.515,17.515,0,0,0,3.125.505l3.31.414a16.029,16.029,0,0,1,3.586.69,1.5,1.5,0,0,1,.92,1.425,2.507,2.507,0,0,1-1.241,2.068,4.552,4.552,0,0,1-2.758.874,3.956,3.956,0,0,1-2.529-.92,2.6,2.6,0,0,1-1.15-2.023l-5.435-.09a41.013,41.013,0,0,0,20.855,6.99A10.158,10.158,0,0,0,558.441,202.856Z" transform="translate(-529.525 -178.998)" fill="#fff"/>
    </g>
    <g id="Group_176" data-name="Group 176" transform="translate(290.972 190.457)">
      <path id="Path_707" data-name="Path 707" d="M1191.754,322.034s15.281,3.035,18.631,17.241a3.5,3.5,0,0,1-2.681,4.238h0a3.48,3.48,0,0,1-4.16-2.945C1202.843,335.282,1200.382,325.855,1191.754,322.034Z" transform="translate(-1168.968 -322.034)" fill="#aeb0b3"/>
      <path id="Path_708" data-name="Path 708" d="M1202.757,354.926s9.547,12.31,2.762,25.233a3.5,3.5,0,0,1-4.8,1.442h0a3.48,3.48,0,0,1-1.21-4.951C1202.442,372.2,1206.765,363.468,1202.757,354.926Z" transform="translate(-1174.866 -349.068)" fill="#aeb0b3"/>
      <path id="Path_709" data-name="Path 709" d="M1132.842,390.342s-.335,15.575-13.745,21.34a3.5,3.5,0,0,1-4.64-1.9h0a3.481,3.481,0,0,1,2.178-4.608C1121.721,403.562,1130.578,399.5,1132.842,390.342Z" transform="translate(-1105.235 -378.175)" fill="#aeb0b3"/>
      <path id="Path_710" data-name="Path 710" d="M1089.545,397.048s-8.149,13.277-22.636,11.487a3.5,3.5,0,0,1-3.044-3.986h0a3.48,3.48,0,0,1,4.206-2.879C1073.271,402.848,1082.966,403.813,1089.545,397.048Z" transform="translate(-1063.825 -383.687)" fill="#aeb0b3"/>
    </g>
    <path id="Path_711" data-name="Path 711" d="M1265.244,272.437" transform="translate(-938.396 -90.814)" fill="none" stroke="#1a1818" stroke-miterlimit="10" stroke-width="7.274"/>
    <path id="Path_712" data-name="Path 712" d="M522.941,279.848" transform="translate(-328.308 -96.905)" fill="none" stroke="#1a1818" stroke-miterlimit="10" stroke-width="7.274"/>
    <path id="Path_713" data-name="Path 713" d="M785.6,314.807c-.824.19-1.7.381-2.624.569a3.955,3.955,0,0,0,.541.036A3.6,3.6,0,0,0,785.6,314.807Z" transform="translate(-542.026 -125.638)" fill="none"/>
    <path id="Path_714" data-name="Path 714" d="M775.19,249.379a16.757,16.757,0,0,0,1.371-6.993q0-2.926-1.006-3.886a3.409,3.409,0,0,0-2.422-1.143q-1.921,0-3.246,2.7a14.214,14.214,0,0,0-1.326,6.261,13.389,13.389,0,0,0,.32,3.109,2.592,2.592,0,0,0,2.248,2.3c.921-.187,1.8-.378,2.624-.569A4.388,4.388,0,0,0,775.19,249.379Z" transform="translate(-530.179 -61.982)" fill="none"/>
    <path id="Path_715" data-name="Path 715" d="M948.182,257.651a31.942,31.942,0,0,1,3.135,1.058l-2.138-10.059C948.668,248.649,948.336,251.656,948.182,257.651Z" transform="translate(-677.807 -71.263)" fill="none"/>
    <path id="Path_716" data-name="Path 716" d="M583.088,232.555c29.439-10.94,49.273,14.122,49.273,14.122s-20.388-16.667-41.492-9.173-88.382,38.388-99.936-15.117C509.553,259.608,550.862,244.531,583.088,232.555Z" transform="translate(-302.001 -49.678)" fill="#fff"/>
    <path id="Path_717" data-name="Path 717" d="M590.656,237.5c21.1-7.493,32.934,1.717,41.492,9.173-32.17-23.294-50.146,5-93.984,8.586-50.813,4.41-47.445-32.877-47.445-32.877C502.274,275.891,569.553,245,590.656,237.5Z" transform="translate(-301.788 -49.678)" fill="#aeb0b3"/>
    <path id="Path_718" data-name="Path 718" d="M142.624,188.671q.19-2.992.38-5.982l-.793.012q.165,2.982.33,5.968Z" transform="translate(-15.391 -17.051)" fill="#fff"/>
    <path id="Path_719" data-name="Path 719" d="M135.944,182.781,135,182.8c.113.129.007.355.021.519.122,1.4.224,2.807.326,4.213a7.362,7.362,0,0,0,.158,1.334c.041-.544.086-1.086.122-1.63.092-1.377.175-2.755.273-4.132A.876.876,0,0,1,135.944,182.781Z" transform="translate(-9.463 -17.127)" fill="#fff"/>
    <path id="Path_720" data-name="Path 720" d="M129.046,188.939c.037-.593.079-1.186.11-1.779.065-1.252.116-2.5.193-3.755a1.778,1.778,0,0,1,.137-.5l-.891.019q.19,3.007.38,6.015Z" transform="translate(-4.201 -17.23)" fill="#fff"/>
    <g id="Group_177" data-name="Group 177" transform="translate(123.484 174.274)">
      <path id="Path_721" data-name="Path 721" d="M123.919,250.836q.593-1.189,1.182-2.379c0-.053,0-.105.006-.158.036-.983.078-1.966.108-2.948q.138-4.51.269-9.019c.028-.941.042-1.882.1-2.82a1.619,1.619,0,0,0-.594-1.436c-.381-.317-.783-.607-1.184-.9q-.092,3.83-.185,8.4-.139,6.946-.138,11.408c0,.229.006.469.006.7Q123.7,251.263,123.919,250.836Z" transform="translate(-123.484 -231.178)" fill="#fff"/>
      <path id="Path_722" data-name="Path 722" d="M125.232,348.841c.016-.957.046-1.914.081-2.871q-.713,1.709-1.426,3.418c.007.245.011.483.02.731l1.744.016c-.015-.021-.032-.037-.047-.06A2.429,2.429,0,0,1,125.232,348.841Z" transform="translate(-123.814 -325.524)" fill="#fff"/>
    </g>
    <path id="Path_723" data-name="Path 723" d="M157.83,197.393a6.778,6.778,0,0,0,3.312-5.981,7.981,7.981,0,0,0-3.726-7.268,13.479,13.479,0,0,0-4.048-1.242,21.361,21.361,0,0,0-2.438-.23q-1.978-.138-5.2-.138-2.3,0-4.357.024a.2.2,0,0,1,.082.119c.1,1.205.18,2.413.267,3.619.1,1.419.221,2.837.3,4.258a.858.858,0,0,1-.275.595c-.412.369-.883.672-1.306,1.029a1.476,1.476,0,0,0-.52,1.251q.179,4.891.334,9.785c.021.629.038,1.257.057,1.886.17-.332.334-.668.507-1a2.509,2.509,0,0,0,.128-2.163,5.277,5.277,0,0,1-.164-3.4,5.983,5.983,0,0,1,2.779-3.817,2.079,2.079,0,0,1,3.284,1.653,5.893,5.893,0,0,1-.6,3.48,5.625,5.625,0,0,1-2.364,2.663c-.461.253-.955.445-1.428.677a1.689,1.689,0,0,0-.834.95c-.406,1.007-.826,2.009-1.247,3.009q.033,1.13.068,2.261c.053,1.71.137,3.419.153,5.129a2.406,2.406,0,0,1-.348,1.2c-.02.033-.044.057-.066.087l1.871.017a103.677,103.677,0,0,0,12.329-.6q4.094-.46,5.979-2.714,1.98-2.392,1.979-7.13v-.322A8.514,8.514,0,0,0,157.83,197.393Zm-11.822-2.806-.138-4-.092-1.243h1.886a12.013,12.013,0,0,1,2.9.276,1.919,1.919,0,0,1,1.61,2.024q0,1.795-1.011,2.3Q149.962,194.587,146.008,194.587Zm3.128,13.2a13.074,13.074,0,0,1-2.99-.368l-.23-1.794-.046-3.358h1.748a8.994,8.994,0,0,1,4.232.69,2.462,2.462,0,0,1,1.012,2.254Q152.861,207.79,149.135,207.79Z" transform="translate(-13.507 -16.925)" fill="#fff"/>
    <g id="Group_178" data-name="Group 178" transform="translate(221.02 198.381)">
      <path id="Path_724" data-name="Path 724" d="M671.306,450.529l.781.165a.208.208,0,0,1,.181.216l.045,2.643c0,.062.054.073.079.016l1.11-2.4a.207.207,0,0,1,.252-.125l.782.165a.16.16,0,0,1,.125.252l-1.847,4.006a.206.206,0,0,1-.253.125l-1.221-.257a.208.208,0,0,1-.181-.217l-.071-4.41C671.086,450.565,671.169,450.5,671.306,450.529Z" transform="translate(-671.089 -435.561)" fill="#f7a62c"/>
      <path id="Path_725" data-name="Path 725" d="M694.344,455.452l.73.1a.177.177,0,0,1,.172.226l-.58,4.252a.18.18,0,0,1-.226.172l-.731-.1a.185.185,0,0,1-.172-.227l.579-4.251A.181.181,0,0,1,694.344,455.452Z" transform="translate(-689.537 -439.61)" fill="#f7a62c"/>
      <path id="Path_726" data-name="Path 726" d="M708.847,457.111l2.81.192a.178.178,0,0,1,.187.215l-.05.749a.181.181,0,0,1-.215.187l-1.619-.11a.181.181,0,0,0-.215.187l-.015.214a.184.184,0,0,0,.188.214l1.036.071a.178.178,0,0,1,.188.214l-.052.749a.181.181,0,0,1-.214.187l-1.037-.071a.18.18,0,0,0-.215.187l-.015.214a.184.184,0,0,0,.187.214l1.62.111a.177.177,0,0,1,.187.215l-.051.749a.178.178,0,0,1-.214.187l-2.81-.192a.184.184,0,0,1-.188-.215l.293-4.281A.181.181,0,0,1,708.847,457.111Z" transform="translate(-701.704 -440.975)" fill="#f7a62c"/>
      <path id="Path_727" data-name="Path 727" d="M734.23,462.724l-.037-3.139a.178.178,0,0,0-.2-.2l-.939.011a.183.183,0,0,1-.2-.2l-.009-.751a.18.18,0,0,1,.2-.2l3.434-.041a.178.178,0,0,1,.2.2l.009.751a.181.181,0,0,1-.2.2l-.938.011a.18.18,0,0,0-.2.2l.037,3.138a.181.181,0,0,1-.2.2l-.751.009A.184.184,0,0,1,734.23,462.724Z" transform="translate(-721.84 -441.874)" fill="#f7a62c"/>
      <path id="Path_728" data-name="Path 728" d="M759.939,456.512l.982-.085a.231.231,0,0,1,.247.134l1.1,2.147c.032.058.085.04.078-.027l-.185-2.158a.181.181,0,0,1,.183-.218l.749-.064a.177.177,0,0,1,.218.183l.368,4.277a.18.18,0,0,1-.182.218l-.983.085a.232.232,0,0,1-.247-.134l-1.1-2.147c-.032-.058-.084-.04-.078.027l.186,2.158a.182.182,0,0,1-.184.218l-.749.065a.184.184,0,0,1-.218-.184l-.368-4.277A.18.18,0,0,1,759.939,456.512Z" transform="translate(-743.962 -440.26)" fill="#f7a62c"/>
      <path id="Path_729" data-name="Path 729" d="M790.577,454.6l.421,2.814c.022.146-.033.235-.165.255l-.743.111a.181.181,0,0,1-.229-.169l-.086-.578a.177.177,0,0,0-.228-.169l-.57.085a.181.181,0,0,0-.17.229l.086.578a.178.178,0,0,1-.17.229l-.743.111c-.126.019-.211-.05-.232-.2l-.421-2.813c-.125-.836-.125-1.745,1.367-1.968S790.452,453.767,790.577,454.6Zm-1.034.887-.107-.717c-.048-.318-.118-.471-.556-.405s-.46.231-.412.55l.107.723a.184.184,0,0,0,.229.169l.571-.085A.185.185,0,0,0,789.543,455.49Z" transform="translate(-766.582 -437.668)" fill="#f7a62c"/>
      <path id="Path_730" data-name="Path 730" d="M811.518,447.243l1.359-.283a.206.206,0,0,1,.247.134l.865,1.813c.027.063.079.052.078-.016l.068-2.007a.206.206,0,0,1,.173-.222l1.359-.283a.178.178,0,0,1,.238.156l.876,4.2a.18.18,0,0,1-.156.238l-.734.153a.183.183,0,0,1-.238-.156l-.54-2.587a.037.037,0,0,0-.073.009l-.09,2.753a.207.207,0,0,1-.182.215l-.433.09a.206.206,0,0,1-.252-.125l-1.183-2.487a.037.037,0,0,0-.071.022l.54,2.586a.181.181,0,0,1-.156.239l-.736.153a.18.18,0,0,1-.238-.156l-.877-4.2A.178.178,0,0,1,811.518,447.243Z" transform="translate(-786.372 -432.149)" fill="#f7a62c"/>
      <path id="Path_731" data-name="Path 731" d="M843.377,441.034l2.731-.7a.178.178,0,0,1,.245.145l.187.728a.182.182,0,0,1-.146.245l-1.573.4a.181.181,0,0,0-.145.245l.053.208a.184.184,0,0,0,.245.145l1.008-.257a.178.178,0,0,1,.245.145l.186.728a.18.18,0,0,1-.145.245l-1.008.257a.181.181,0,0,0-.145.245l.053.208a.184.184,0,0,0,.245.145l1.573-.4a.177.177,0,0,1,.244.145l.186.728a.178.178,0,0,1-.145.245l-2.731.7a.183.183,0,0,1-.244-.145l-1.063-4.161A.18.18,0,0,1,843.377,441.034Z" transform="translate(-812.563 -427.181)" fill="#f7a62c"/>
      <path id="Path_732" data-name="Path 732" d="M868.752,436.772a.544.544,0,0,0-.685-.271c-.251.073-.363.265-.295.406.234.477,2.268-.12,2.693,1.362A1.6,1.6,0,0,1,869.1,440.1a1.525,1.525,0,0,1-2.075-.911.2.2,0,0,1,.107-.261l.682-.37c.122-.063.209-.025.261.107a.549.549,0,0,0,.708.327c.316-.091.494-.344.406-.507-.28-.512-2.185.167-2.611-1.316a1.427,1.427,0,0,1,1.171-1.78,1.528,1.528,0,0,1,2.057.847.2.2,0,0,1-.107.26l-.688.372C868.889,436.934,868.809,436.9,868.752,436.772Z" transform="translate(-831.72 -423.041)" fill="#f7a62c"/>
      <path id="Path_733" data-name="Path 733" d="M889.217,427.7l2.687-.84a.178.178,0,0,1,.252.132l.224.717a.181.181,0,0,1-.132.252l-1.549.484a.182.182,0,0,0-.132.252l.064.2a.184.184,0,0,0,.252.132l.992-.31a.178.178,0,0,1,.252.132l.224.717a.181.181,0,0,1-.132.252l-.992.31a.18.18,0,0,0-.132.252l.064.2a.184.184,0,0,0,.252.132l1.549-.484a.177.177,0,0,1,.251.132l.224.717a.178.178,0,0,1-.132.252l-2.688.839a.182.182,0,0,1-.251-.132l-1.28-4.1A.18.18,0,0,1,889.217,427.7Z" transform="translate(-850.246 -416.105)" fill="#f7a62c"/>
      <path id="Path_734" data-name="Path 734" d="M930.871,420.231l-.724.245a.164.164,0,0,1-.176-.039l-1.092-1.053a.07.07,0,0,0-.062-.015l-.254.086a.2.2,0,0,0-.13.264l.339,1a.2.2,0,0,1-.13.264l-.712.241a.2.2,0,0,1-.263-.13l-1.371-4.053a.2.2,0,0,1,.13-.263l1.392-.471c1.13-.382,1.751-.055,2.1.987a1.5,1.5,0,0,1-.061,1.408.071.071,0,0,0,.009.089l1.1,1.024A.237.237,0,0,1,930.871,420.231Zm-3.1-2.469.159.47a.2.2,0,0,0,.263.131l.324-.11c.305-.1.445-.193.312-.587s-.3-.381-.6-.277l-.324.109A.2.2,0,0,0,927.77,417.762Z" transform="translate(-880.83 -407.315)" fill="#f7a62c"/>
      <path id="Path_735" data-name="Path 735" d="M950.914,407.011l2.66-.919a.179.179,0,0,1,.256.125l.246.71a.182.182,0,0,1-.125.256l-1.533.529a.18.18,0,0,0-.125.256l.07.2a.184.184,0,0,0,.256.125l.983-.34a.178.178,0,0,1,.256.125l.245.71a.181.181,0,0,1-.125.256l-.982.339a.181.181,0,0,0-.125.256l.07.2a.184.184,0,0,0,.256.124l1.533-.53a.178.178,0,0,1,.256.125l.245.71a.178.178,0,0,1-.125.256l-2.662.919a.182.182,0,0,1-.255-.125l-1.4-4.055A.181.181,0,0,1,950.914,407.011Z" transform="translate(-900.958 -399.031)" fill="#f7a62c"/>
      <path id="Path_736" data-name="Path 736" d="M976.962,401.162a.544.544,0,0,0-.7-.236c-.248.085-.35.282-.275.42.259.465,2.26-.234,2.759,1.225a1.6,1.6,0,0,1-1.27,1.9,1.524,1.524,0,0,1-2.119-.8.2.2,0,0,1,.093-.266l.663-.4c.118-.069.207-.036.266.093a.55.55,0,0,0,.723.292c.311-.107.476-.369.379-.528-.306-.5-2.174.276-2.673-1.182a1.428,1.428,0,0,1,1.079-1.837,1.527,1.527,0,0,1,2.1.742.2.2,0,0,1-.093.266l-.669.407C977.107,401.317,977.024,401.282,976.962,401.162Z" transform="translate(-920.658 -393.788)" fill="#f7a62c"/>
      <path id="Path_737" data-name="Path 737" d="M998.484,394.688l-.983-2.98a.178.178,0,0,0-.254-.128l-.892.294a.183.183,0,0,1-.254-.128l-.236-.713a.181.181,0,0,1,.128-.254l3.26-1.076a.178.178,0,0,1,.255.128l.235.714a.181.181,0,0,1-.128.254l-.892.294a.18.18,0,0,0-.128.254l.984,2.98a.181.181,0,0,1-.128.254l-.713.235A.184.184,0,0,1,998.484,394.688Z" transform="translate(-938.006 -385.562)" fill="#f7a62c"/>
      <path id="Path_738" data-name="Path 738" d="M1026.771,384.912l.827,2.72c.043.141,0,.238-.125.277l-.718.219a.181.181,0,0,1-.251-.134l-.17-.558a.178.178,0,0,0-.251-.134l-.552.168a.181.181,0,0,0-.134.251l.17.558a.178.178,0,0,1-.134.251l-.718.218c-.122.037-.216-.019-.259-.16l-.828-2.72c-.246-.808-.379-1.707,1.064-2.146S1026.525,384.1,1026.771,384.912Zm-.892,1.029-.211-.693c-.093-.308-.185-.448-.609-.32s-.421.3-.327.6l.213.7a.183.183,0,0,0,.251.134l.552-.167A.186.186,0,0,0,1025.879,385.941Z" transform="translate(-960.709 -380.559)" fill="#f7a62c"/>
      <path id="Path_739" data-name="Path 739" d="M1048.39,376.224l.66,2.545c.13.5.241.8.722.672s.434-.438.3-.939l-.66-2.545a.18.18,0,0,1,.144-.245l.727-.189a.178.178,0,0,1,.246.145l.75,2.889a1.685,1.685,0,0,1-3.26.846l-.75-2.89a.181.181,0,0,1,.144-.245l.728-.189A.177.177,0,0,1,1048.39,376.224Z" transform="translate(-980.261 -373.912)" fill="#f7a62c"/>
      <path id="Path_740" data-name="Path 740" d="M1077.984,375.581l-.751.145a.165.165,0,0,1-.169-.063l-.94-1.193a.07.07,0,0,0-.059-.023l-.264.051a.2.2,0,0,0-.165.243l.2,1.041a.2.2,0,0,1-.166.243l-.738.142a.2.2,0,0,1-.244-.164l-.808-4.2a.2.2,0,0,1,.165-.243l1.443-.278c1.173-.225,1.744.184,1.951,1.265a1.5,1.5,0,0,1-.252,1.388.071.071,0,0,0,0,.089l.948,1.164A.237.237,0,0,1,1077.984,375.581Zm-2.738-2.869.094.487a.2.2,0,0,0,.244.165l.336-.065c.316-.061.467-.131.387-.539s-.244-.418-.56-.357l-.336.064A.2.2,0,0,0,1075.246,372.713Z" transform="translate(-1002.135 -370.383)" fill="#f7a62c"/>
      <path id="Path_741" data-name="Path 741" d="M1105.129,368.485l.257,2.829c.013.147-.047.233-.18.245l-.748.068a.179.179,0,0,1-.218-.181l-.053-.581a.177.177,0,0,0-.219-.182l-.573.052a.181.181,0,0,0-.182.219l.053.581a.177.177,0,0,1-.182.218l-.747.069c-.127.011-.207-.063-.221-.209l-.257-2.831c-.076-.841-.024-1.747,1.478-1.884S1105.053,367.643,1105.129,368.485Zm-1.083.825-.065-.721c-.029-.32-.091-.476-.531-.436s-.473.2-.444.525l.066.727a.184.184,0,0,0,.219.182l.574-.052A.186.186,0,0,0,1104.047,369.31Z" transform="translate(-1025.115 -366.819)" fill="#f7a62c"/>
      <path id="Path_742" data-name="Path 742" d="M1128.792,366.525l.984.065a.231.231,0,0,1,.224.169l.764,2.288c.022.063.076.052.081-.014l.142-2.161a.18.18,0,0,1,.214-.188l.75.049a.177.177,0,0,1,.187.214l-.282,4.282a.18.18,0,0,1-.214.187l-.983-.065a.232.232,0,0,1-.224-.169l-.763-2.288c-.023-.061-.077-.052-.082.015l-.142,2.161a.18.18,0,0,1-.214.188l-.75-.05a.184.184,0,0,1-.188-.214l.282-4.282A.181.181,0,0,1,1128.792,366.525Z" transform="translate(-1046.86 -366.524)" fill="#f7a62c"/>
      <path id="Path_743" data-name="Path 743" d="M1159.159,374.369l.92-3a.177.177,0,0,0-.133-.251l-.9-.276a.183.183,0,0,1-.133-.251l.22-.718a.18.18,0,0,1,.251-.133l3.281,1.008a.177.177,0,0,1,.133.251l-.22.718a.18.18,0,0,1-.251.133l-.9-.275a.18.18,0,0,0-.252.133l-.921,3a.181.181,0,0,1-.252.133l-.717-.221A.183.183,0,0,1,1159.159,374.369Z" transform="translate(-1072.017 -369.158)" fill="#f7a62c"/>
    </g>
    <g id="Group_181" data-name="Group 181" transform="translate(151.324 170.363)">
      <g id="Group_179" data-name="Group 179" transform="translate(0.965)">
        <path id="Path_744" data-name="Path 744" d="M292.195,217.847c2.024,1.25,5.593.706,5.593.706s4.516-1.8,6.868,1.835c1.455,2.252,4.566,1.395,6.727.417l-.159-9.84a.031.031,0,0,0-.031-.031H299.179a11.861,11.861,0,0,0-10.756,6.881A4.676,4.676,0,0,1,292.195,217.847Z" transform="translate(-287.85 -210.628)" fill="#fff"/>
        <path id="Path_745" data-name="Path 745" d="M304.868,220.709a3.46,3.46,0,0,1-3.113-1.565A4.566,4.566,0,0,0,297.677,217a7.344,7.344,0,0,0-2.42.425l-.068.018a13.341,13.341,0,0,1-1.85.121,7.9,7.9,0,0,1-3.95-.869,4.278,4.278,0,0,0-3.515,0l-.669.219.3-.638a12.207,12.207,0,0,1,11.032-7.058h12.014a.337.337,0,0,1,.336.333l.163,10.04-.183.083A10,10,0,0,1,304.868,220.709Zm-7.192-4.319a5.208,5.208,0,0,1,4.592,2.421,2.85,2.85,0,0,0,2.6,1.285,9.17,9.17,0,0,0,3.562-.9l-.152-9.368H296.535a11.6,11.6,0,0,0-10.17,6.088,4.324,4.324,0,0,1,3.346.259,7.331,7.331,0,0,0,3.629.778,13.261,13.261,0,0,0,1.728-.11A7.912,7.912,0,0,1,297.677,216.391Z" transform="translate(-285.206 -209.218)" fill="#fff"/>
      </g>
      <g id="Group_180" data-name="Group 180" transform="translate(0 6.497)">
        <path id="Path_746" data-name="Path 746" d="M305.712,250.778c-2.161.978-5.272,1.835-6.727-.417-2.352-3.638-6.868-1.835-6.868-1.835s-3.569.544-5.593-.706a4.676,4.676,0,0,0-3.772-.032,11.685,11.685,0,0,0-1.068,3.878c-.455,5.058-.079,10.857,2.893,14.94a7.038,7.038,0,0,0,5.705,2.832h8.35a7.14,7.14,0,0,0,7.077-5.327,10.558,10.558,0,0,0,.2-1.249Zm-11.688,13.837c-3.213,0-5.819-3.191-5.819-7.127s2.606-7.127,5.819-7.127,5.82,3.191,5.82,7.127S297.237,264.616,294.024,264.616Z" transform="translate(-281.213 -247.099)" fill="#f7a62c"/>
        <path id="Path_747" data-name="Path 747" d="M297.206,268.342h-8.35a7.353,7.353,0,0,1-5.953-2.958c-2.547-3.5-3.539-8.6-2.95-15.148a12,12,0,0,1,1.1-3.98l.056-.121.125-.042a4.819,4.819,0,0,1,4.028.064,7.319,7.319,0,0,0,3.629.778,13.272,13.272,0,0,0,1.728-.11,7.9,7.9,0,0,1,2.61-.454,5.208,5.208,0,0,1,4.592,2.421,2.85,2.85,0,0,0,2.6,1.285,9.412,9.412,0,0,0,3.745-.981l.424-.192.2,12.568v.017a10.729,10.729,0,0,1-.206,1.287A7.45,7.45,0,0,1,297.206,268.342Zm-15.658-21.706a11.335,11.335,0,0,0-.986,3.656c-.575,6.4.378,11.357,2.835,14.732a6.74,6.74,0,0,0,5.458,2.707h8.35a6.835,6.835,0,0,0,6.778-5.088,10.307,10.307,0,0,0,.192-1.2l-.188-11.606a9.487,9.487,0,0,1-3.572.851,3.461,3.461,0,0,1-3.113-1.565,4.566,4.566,0,0,0-4.079-2.142,7.339,7.339,0,0,0-2.419.425l-.068.018a13.337,13.337,0,0,1-1.85.121,7.9,7.9,0,0,1-3.95-.869A4.174,4.174,0,0,0,281.549,246.636Zm11.05,16.883c-3.377,0-6.125-3.334-6.125-7.433s2.748-7.433,6.125-7.433,6.126,3.335,6.126,7.433S295.975,263.519,292.6,263.519Zm0-14.254c-3.04,0-5.513,3.06-5.513,6.821s2.473,6.821,5.513,6.821,5.514-3.06,5.514-6.821S295.639,249.265,292.6,249.265Z" transform="translate(-279.788 -245.697)" fill="#fff"/>
      </g>
    </g>
    <g id="Group_205" data-name="Group 205" transform="translate(150.918 161.942)">
      <g id="Group_183" data-name="Group 183" transform="translate(1.411 0.345)">
        <g id="Group_182" data-name="Group 182" transform="translate(0 0.218)">
          <path id="Path_748" data-name="Path 748" d="M306.907,177.041c-1.534-.6-3.51-.164-5.6.2a3.788,3.788,0,0,1-3.049-.457l-.4.65c-.933.363-3.444-.232-3.378-2.436a4.113,4.113,0,0,1,2.173-3.265c1.258-5.518,5.859-5.158,5.859-5.158l-.166-.259a9.34,9.34,0,0,1,2.658-1.213,3.974,3.974,0,0,1,1.729,1.078,6,6,0,0,1,3.649,2.418s2.6-1.818,5,1.172c0,0,4.55-1.015,5.693,3.192a4.008,4.008,0,0,1-.476,5.53,7.02,7.02,0,0,1-3.115,1.525c-2.025.466-2.141,3.175-1.96,4.415s-1.293,1.166-2.033.5a1.977,1.977,0,0,1-.023-.6c.082-.684.933-2.333.157-3.312a4.481,4.481,0,0,0-2.283-1.252l.33-.859C309.16,179.266,308.442,177.645,306.907,177.041Z" transform="translate(-292.869 -165.105)" fill="#fff"/>
          <path id="Path_749" data-name="Path 749" d="M300.738,185.34c-1.877-.857-1.763-2.3-5.379-1.613s-4.457.257-5.261-.522a3.458,3.458,0,0,1-2.454.459v-.209a1.935,1.935,0,0,1-1.924-1.334c-.331-1.376-.655-2.975.667-3.727s2.319-1.191,2.319-1.191-.39-3.312,1.417-4.676,4.735-.855,4.735-.855l.048-.033.166.259s-4.6-.36-5.859,5.158a4.113,4.113,0,0,0-2.173,3.265c-.065,2.2,2.446,2.8,3.378,2.436l.4-.65a3.788,3.788,0,0,0,3.049.457c2.09-.366,4.065-.806,5.6-.2s2.253,2.225,4.767,1.872l-.33.859c-.136-.034-.221-.05-.221-.05A2.516,2.516,0,0,1,300.738,185.34Z" transform="translate(-285.427 -170.425)" fill="#f7f3e9"/>
        </g>
        <path id="Path_750" data-name="Path 750" d="M364.093,183.429c-.181-1.241-.065-3.95,1.96-4.415a7.02,7.02,0,0,0,3.115-1.525,4.008,4.008,0,0,0,.476-5.53c-1.143-4.207-5.693-3.192-5.693-3.192-2.4-2.99-5-1.172-5-1.172a6,6,0,0,0-3.649-2.418,3.974,3.974,0,0,0-1.729-1.078,5.22,5.22,0,0,1,2.894-.023A4.221,4.221,0,0,1,359.528,167s2.549-2.072,5.068,1.272c0,0,5.233-2.037,5.761,4.008,0,0,3.433,3.173-.974,5.633l0,.229-.222-.111a4.3,4.3,0,0,1-1.854,1.547,3.326,3.326,0,0,0-2.071,2.783c-.112,1.147.391,2.914-1.3,2.937a1.664,1.664,0,0,1-1.869-1.371C362.8,184.594,364.272,184.67,364.093,183.429Z" transform="translate(-341.435 -163.88)" fill="#f7a62c"/>
      </g>
      <path id="Path_751" data-name="Path 751" d="M312.982,170.588a.223.223,0,0,0,.009-.034,4.27,4.27,0,0,0-5.924-4.187,3.555,3.555,0,0,0-5.172-1.324,5.36,5.36,0,0,0-8.592-1.593.272.272,0,0,0-.075.115,5.068,5.068,0,0,0-6.7,5.552c-2.267.574-4,2.976-2.711,5.3a3.16,3.16,0,0,0,4.572,1.1c2.6,2.627,6.913-1.386,9.338,1.376a.26.26,0,0,0,.137.083,3.107,3.107,0,0,0,4.245.4.285.285,0,0,0,.213.109,2.333,2.333,0,0,1,2.213,1.83,4.392,4.392,0,0,1-.426,2.157,1.92,1.92,0,0,0,.756,2.218,1.954,1.954,0,0,0,2.874-2.276.286.286,0,0,0-.034-.069c-.122-1.744,1.147-2.5,2.5-3.362a3.035,3.035,0,0,0,1.314-1.479.25.25,0,0,0,.329.152A3.508,3.508,0,0,0,312.982,170.588Zm-1.291,5.5a.289.289,0,0,0-.078.044,2.06,2.06,0,0,0,.027-.378.294.294,0,0,0-.588,0c.033,1.69-2.255,2.046-3.161,3.158a3.61,3.61,0,0,0-.721,2.876.255.255,0,0,0,.052.125,1.466,1.466,0,0,1-.7,1.368,1.36,1.36,0,0,1-1.94-1.138c-.029-.906.656-1.672.574-2.622a2.89,2.89,0,0,0-2.594-2.591,3.494,3.494,0,0,0,.349-.471.294.294,0,0,0-.507-.3,2.533,2.533,0,0,1-4.244.266.3.3,0,0,0-.162-.1c-2.545-2.585-6.726,1.171-9.168-1.2a3.1,3.1,0,0,0,.674-1.114c.126-.358-.442-.511-.566-.156a2.466,2.466,0,0,1-.623.98.333.333,0,0,0-.118.107,2.6,2.6,0,0,1-4.067-1.276c-.7-2.159,1.171-3.993,3.228-4.087.377-.017.378-.605,0-.588-.088,0-.175.018-.263.028a.2.2,0,0,0,0-.024,4.484,4.484,0,0,1,6.429-4.678c.339.165.636-.342.3-.507l-.024-.01a4.771,4.771,0,0,1,7.63,1.623,3.807,3.807,0,0,0-.536.608c-.216.312.294.6.507.3a2.988,2.988,0,0,1,5.143.31,4.4,4.4,0,0,0-.434.285c-.3.227,0,.738.3.508a3.681,3.681,0,0,1,5.99,2.783c-.061-.032-.115-.07-.18-.1-.342-.156-.64.35-.3.507A2.921,2.921,0,0,1,311.692,176.091Z" transform="translate(-282.333 -161.942)" fill="#fff"/>
      <g id="Group_184" data-name="Group 184" transform="translate(29.687 9.717)">
        <path id="Path_752" data-name="Path 752" d="M444.9,217.434a1.237,1.237,0,0,0-.665-.741c-.113-.051-.053-.237.062-.186a1.425,1.425,0,0,1,.78.841c.04.117-.135.205-.177.086Z" transform="translate(-444.178 -216.498)" fill="#1a1818"/>
      </g>
      <g id="Group_185" data-name="Group 185" transform="translate(13.668 1.516)">
        <path id="Path_753" data-name="Path 753" d="M357.99,171.647a4.108,4.108,0,0,0-3.629-.888.1.1,0,0,1-.048-.191,4.313,4.313,0,0,1,3.817.942c.1.082-.045.219-.14.137Z" transform="translate(-354.241 -170.453)" fill="#1a1818"/>
      </g>
      <g id="Group_186" data-name="Group 186" transform="translate(2.279 10.259)">
        <path id="Path_754" data-name="Path 754" d="M291.858,222.065a2.339,2.339,0,0,1-1.546-2.433c.011-.125.207-.121.2.006a2.14,2.14,0,0,0,1.4,2.239c.118.044.063.232-.055.188Z" transform="translate(-290.304 -219.541)" fill="#1a1818"/>
      </g>
      <g id="Group_187" data-name="Group 187" transform="translate(2.9 8.96)">
        <path id="Path_755" data-name="Path 755" d="M294,214.437a1.988,1.988,0,0,1,.224-2.156c.078-.1.221.035.143.133a1.784,1.784,0,0,0-.2,1.921c.055.112-.111.216-.167.1Z" transform="translate(-293.787 -212.246)" fill="#1a1818"/>
      </g>
      <g id="Group_188" data-name="Group 188" transform="translate(12.129 12.61)">
        <path id="Path_756" data-name="Path 756" d="M351.328,234.513c-.949.243-1.688-.352-2.428-.857a3.9,3.9,0,0,0-3.171-.6c-.122.029-.182-.157-.058-.187a4.055,4.055,0,0,1,2.472.154c1.029.409,1.913,1.617,3.125,1.307.121-.031.182.156.06.187Z" transform="translate(-345.603 -232.742)" fill="#1a1818"/>
      </g>
      <g id="Group_189" data-name="Group 189" transform="translate(6.584 12.515)">
        <path id="Path_757" data-name="Path 757" d="M316.155,232.943a2.55,2.55,0,0,1-1.642-.552c-.1-.078,0-.245.1-.167a2.382,2.382,0,0,0,1.547.524c.126,0,.121.194-.006.2Z" transform="translate(-314.473 -232.203)" fill="#1a1818"/>
      </g>
      <g id="Group_190" data-name="Group 190" transform="translate(25.775 12.196)">
        <path id="Path_758" data-name="Path 758" d="M425.216,230.558a1.868,1.868,0,0,1-2.966.662c-.1-.082.033-.229.13-.147a1.675,1.675,0,0,0,2.661-.6c.052-.116.227-.029.176.086Z" transform="translate(-422.216 -230.418)" fill="#1a1818"/>
      </g>
      <g id="Group_191" data-name="Group 191" transform="translate(24.391 13.037)">
        <path id="Path_759" data-name="Path 759" d="M416.232,235.307a1.23,1.23,0,0,1-1.752.1c-.1-.081.047-.215.142-.134a1.034,1.034,0,0,0,1.475-.113c.085-.094.22.049.135.142Z" transform="translate(-414.448 -235.134)" fill="#1a1818"/>
      </g>
      <g id="Group_192" data-name="Group 192" transform="translate(7.292 3.771)">
        <path id="Path_760" data-name="Path 760" d="M323.068,183.458a3.726,3.726,0,0,0-4.426,1.974c-.054.112-.239.047-.184-.068a3.925,3.925,0,0,1,4.677-2.091c.121.035.055.219-.066.184Z" transform="translate(-318.447 -183.113)" fill="#1a1818"/>
      </g>
      <g id="Group_193" data-name="Group 193" transform="translate(6.958 3.654)">
        <path id="Path_761" data-name="Path 761" d="M317.888,182.65a2.02,2.02,0,0,0-1.129.885c-.066.107-.237.011-.17-.1a2.225,2.225,0,0,1,1.248-.977c.12-.038.172.151.051.189Z" transform="translate(-316.573 -182.456)" fill="#1a1818"/>
      </g>
      <g id="Group_194" data-name="Group 194" transform="translate(11.188 3.699)">
        <path id="Path_762" data-name="Path 762" d="M343.126,183.171a1.793,1.793,0,0,0-2.614.872c-.048.117-.233.049-.185-.068a1.992,1.992,0,0,1,2.911-.963c.108.064-.005.224-.113.159Z" transform="translate(-340.32 -182.711)" fill="#1a1818"/>
      </g>
      <g id="Group_195" data-name="Group 195" transform="translate(6.048 7.908)">
        <path id="Path_763" data-name="Path 763" d="M313.837,206.656a1.577,1.577,0,0,0-2.177,1.285c-.016.124-.211.112-.2-.014a1.773,1.773,0,0,1,2.438-1.456c.117.045.053.23-.066.185Z" transform="translate(-311.464 -206.341)" fill="#1a1818"/>
      </g>
      <g id="Group_196" data-name="Group 196" transform="translate(5.206 7.987)">
        <path id="Path_764" data-name="Path 764" d="M308.4,207.131a1.129,1.129,0,0,0-1.5.339c-.073.1-.226-.02-.152-.123a1.322,1.322,0,0,1,1.727-.4c.11.059.034.24-.077.18Z" transform="translate(-306.733 -206.785)" fill="#1a1818"/>
      </g>
      <g id="Group_197" data-name="Group 197" transform="translate(23.99 7.296)">
        <path id="Path_765" data-name="Path 765" d="M415.561,204.3a2,2,0,0,0-3.206-.649c-.092.085-.218-.065-.125-.15a2.192,2.192,0,0,1,3.508.715.1.1,0,0,1-.177.084Z" transform="translate(-412.197 -202.903)" fill="#1a1818"/>
      </g>
      <g id="Group_198" data-name="Group 198" transform="translate(22.896 6.623)">
        <path id="Path_766" data-name="Path 766" d="M408.108,200a1.278,1.278,0,0,0-1.887-.436c-.1.072-.231-.076-.128-.149a1.478,1.478,0,0,1,2.192.5c.061.109-.116.194-.177.085Z" transform="translate(-406.055 -199.127)" fill="#1a1818"/>
      </g>
      <g id="Group_199" data-name="Group 199" transform="translate(17.116 11.562)">
        <path id="Path_767" data-name="Path 767" d="M376.209,227.012a1.7,1.7,0,0,1-2.582.025c-.085-.093.072-.21.155-.118a1.5,1.5,0,0,0,2.272-.027c.083-.094.237.026.154.121Z" transform="translate(-373.603 -226.857)" fill="#1a1818"/>
      </g>
      <g id="Group_204" data-name="Group 204" transform="translate(0 1.025)">
        <g id="Group_200" data-name="Group 200" transform="translate(32.112 8.615)">
          <path id="Path_768" data-name="Path 768" d="M458.392,216.119a3.739,3.739,0,0,1-.413,4.223c-.082.095-.243-.016-.161-.112a3.549,3.549,0,0,0,.4-4.025c-.062-.11.115-.2.176-.086Z" transform="translate(-457.795 -216.068)" fill="#1a1818"/>
        </g>
        <g id="Group_201" data-name="Group 201" transform="translate(3.311)">
          <path id="Path_769" data-name="Path 769" d="M299.318,167.893a4.143,4.143,0,0,0-2.989,4.567c.017.124-.175.169-.191.043a4.344,4.344,0,0,1,3.136-4.8c.121-.034.165.157.043.191Z" transform="translate(-296.097 -167.698)" fill="#1a1818"/>
        </g>
        <g id="Group_202" data-name="Group 202" transform="translate(0 7.08)">
          <path id="Path_770" data-name="Path 770" d="M278.588,207.6a3.663,3.663,0,0,0-.794,3.206c.028.123-.167.146-.194.023a3.846,3.846,0,0,1,.832-3.349c.082-.1.238.023.156.119Z" transform="translate(-277.506 -207.449)" fill="#1a1818"/>
        </g>
        <g id="Group_203" data-name="Group 203" transform="translate(1.609 6.459)">
          <path id="Path_771" data-name="Path 771" d="M286.638,204.16a.1.1,0,0,1,0-.2.1.1,0,0,1,0,.2Z" transform="translate(-286.541 -203.964)" fill="#1a1818"/>
        </g>
      </g>
    </g>
    <g id="Group_206" data-name="Group 206" transform="translate(154.427 178.604)">
      <path id="Path_772" data-name="Path 772" d="M298.851,255.488l-.051.027a.511.511,0,0,0-.112.116,2.357,2.357,0,0,0-.245.566,13.422,13.422,0,0,0-.422,2.177c-.058.456-.1.952-.144,1.477s-.061,1.079-.079,1.653-.009,1.166.005,1.767.05,1.212.109,1.819.126,1.213.225,1.8.214,1.169.359,1.72.306,1.077.489,1.565a12.248,12.248,0,0,0,.6,1.342,8.79,8.79,0,0,0,1.253,1.812c.181.2.329.351.437.447l.164.152-.184-.126c-.062-.04-.135-.092-.218-.157s-.182-.137-.284-.228a7.618,7.618,0,0,1-1.472-1.724,11.639,11.639,0,0,1-1.3-2.938,16.109,16.109,0,0,1-.422-1.763c-.109-.607-.193-1.228-.253-1.85s-.081-1.247-.09-1.862.016-1.219.048-1.8a21.913,21.913,0,0,1,.416-3.165,10.553,10.553,0,0,1,.653-2.163,2.118,2.118,0,0,1,.333-.542.53.53,0,0,1,.132-.1Z" transform="translate(-297.21 -255.488)" fill="#fff"/>
      <path id="Path_773" data-name="Path 773" d="M336.729,366.523" transform="translate(-329.69 -346.746)" fill="none" stroke="#2d1a10" stroke-miterlimit="10" stroke-width="7.274"/>
      <path id="Path_774" data-name="Path 774" d="M383.474,311.16s.039.138.088.383.107.6.15,1.022c.021.212.042.444.053.688s.027.5.016.771,0,.545-.028.826-.046.565-.081.851-.093.567-.144.845-.138.547-.2.808-.175.5-.258.738-.205.441-.3.635-.221.355-.316.5a2.144,2.144,0,0,1-.283.356c-.17.187-.268.287-.268.287s.06-.133.167-.354a3.1,3.1,0,0,0,.18-.4c.057-.162.132-.334.2-.53s.123-.413.19-.64.11-.474.17-.725.1-.514.143-.784.092-.54.119-.816.076-.549.1-.821.057-.541.079-.8.044-.513.065-.753.036-.466.053-.676C383.423,311.73,383.475,311.16,383.474,311.16Z" transform="translate(-366.816 -301.244)" fill="#fff"/>
      <path id="Path_775" data-name="Path 775" d="M402.181,299.4s.027.117.058.32.071.5.1.846.045.759.043,1.2-.019.906-.063,1.373c-.023.233-.047.466-.083.7s-.076.453-.118.671-.1.425-.154.621a4.722,4.722,0,0,1-.188.547,2.542,2.542,0,0,1-.437.76.762.762,0,0,1-.19.159l-.076.041.053-.067a.888.888,0,0,0,.111-.2,3.691,3.691,0,0,0,.2-.789c.027-.167.051-.351.077-.544s.044-.4.069-.612c.043-.426.083-.882.127-1.339.021-.229.043-.458.064-.683s.049-.448.071-.663.048-.423.071-.621.05-.384.073-.557c.047-.345.1-.634.133-.836S402.181,299.4,402.181,299.4Z" transform="translate(-382.57 -291.58)" fill="#fff"/>
    </g>
    <g id="Group_208" data-name="Group 208" transform="translate(175.516 181.138)">
      <g id="Group_207" data-name="Group 207" transform="translate(0 0)">
        <path id="Path_776" data-name="Path 776" d="M422.153,272.323a2.492,2.492,0,0,0-1.949-.894h-2.872v.83l1.164-.143a2.486,2.486,0,0,1,2.04,1l.025.035a2.42,2.42,0,0,1,.4,1.373v5.258a2.441,2.441,0,0,1-.125.792,2.537,2.537,0,0,1-1.944,1.777l-1.314-.009-.112.8,3.135-.1a2.841,2.841,0,0,0,2.1-2.188,2.467,2.467,0,0,0,.081-.642v-6.2a2.432,2.432,0,0,0-.247-1.1A3.331,3.331,0,0,0,422.153,272.323Z" transform="translate(-417.025 -271.123)" fill="#f7a62c"/>
        <path id="Path_777" data-name="Path 777" d="M415.692,282.052l.2-1.423,1.552.01a2.219,2.219,0,0,0,1.683-1.57,2.148,2.148,0,0,0,.108-.694v-5.258a2.108,2.108,0,0,0-.342-1.2l-.022-.031a2.176,2.176,0,0,0-1.772-.876l-1.489.183v-1.481h3.178a2.787,2.787,0,0,1,2.189,1.007,3.744,3.744,0,0,1,.41.639,2.769,2.769,0,0,1,.279,1.242v6.2a2.8,2.8,0,0,1-.091.721,3.171,3.171,0,0,1-2.335,2.409l-.048.006Zm.732-.808-.025.172,2.746-.09a2.537,2.537,0,0,0,1.839-1.962,2.19,2.19,0,0,0,.07-.562v-6.2a2.149,2.149,0,0,0-.212-.965,3.068,3.068,0,0,0-.342-.532,2.173,2.173,0,0,0-1.711-.779h-2.566v.178l.858-.1a2.789,2.789,0,0,1,2.29,1.134l.026.038a2.714,2.714,0,0,1,.45,1.547v5.258a2.719,2.719,0,0,1-.142.891,2.84,2.84,0,0,1-2.177,1.98l-.028.006Z" transform="translate(-415.611 -269.713)" fill="#fff"/>
      </g>
      <path id="Path_778" data-name="Path 778" d="M432.61,273.706a1.805,1.805,0,0,1,.431.108,2.191,2.191,0,0,1,.413.2,2.035,2.035,0,0,1,.41.336,1.554,1.554,0,0,1,.17.212,1.328,1.328,0,0,1,.133.227,1.175,1.175,0,0,1,.092.227.906.906,0,0,1,.053.212,1.222,1.222,0,0,1,.026.182c0,.055,0,.1,0,.141,0,.078,0,.121,0,.121s-.011-.043-.028-.118c-.009-.037-.018-.083-.029-.135s-.036-.107-.055-.169a1.141,1.141,0,0,0-.075-.193,1.577,1.577,0,0,0-.1-.2,1.594,1.594,0,0,0-.134-.2,1.344,1.344,0,0,0-.162-.193,1.886,1.886,0,0,0-.181-.177c-.064-.053-.127-.107-.193-.153a3.55,3.55,0,0,0-.373-.234A3.044,3.044,0,0,0,432.61,273.706Z" transform="translate(-429.582 -272.995)" fill="#fff"/>
      <path id="Path_779" data-name="Path 779" d="M437.767,319.7a1.809,1.809,0,0,1,.029.443,2.24,2.24,0,0,1-.067.455,2.029,2.029,0,0,1-.2.493,1.5,1.5,0,0,1-.15.227,1.306,1.306,0,0,1-.176.2,1.159,1.159,0,0,1-.189.156.94.94,0,0,1-.185.115,1.255,1.255,0,0,1-.165.08l-.134.046-.116.036.1-.064.12-.069c.046-.026.091-.068.144-.1a1.192,1.192,0,0,0,.161-.13,1.471,1.471,0,0,0,.162-.161,1.586,1.586,0,0,0,.154-.19,1.479,1.479,0,0,0,.135-.213,2.01,2.01,0,0,0,.113-.226c.03-.078.063-.153.087-.23a3.705,3.705,0,0,0,.109-.427A3.1,3.1,0,0,0,437.767,319.7Z" transform="translate(-432.713 -310.793)" fill="#fff"/>
    </g>
  </g>
</svg>
